<mxfile host="Electron" agent="Mozilla/5.0 (Windows NT 10.0; Win64; x64) AppleWebKit/537.36 (KHTML, like Gecko) draw.io/25.0.2 Chrome/128.0.6613.186 Electron/32.2.5 Safari/537.36" version="25.0.2">
  <diagram name="Page-1" id="26Fd-25vhF1WUuilUzLj">
    <mxGraphModel dx="757" dy="571" grid="1" gridSize="10" guides="1" tooltips="1" connect="1" arrows="1" fold="1" page="1" pageScale="1" pageWidth="850" pageHeight="1100" math="0" shadow="0">
      <root>
        <mxCell id="0" />
        <mxCell id="1" parent="0" />
        <mxCell id="ajeqX5y_s42NzRfN0IP8-15" value="" style="rounded=0;whiteSpace=wrap;html=1;fillColor=none;strokeColor=#CCCCCC;" vertex="1" parent="1">
          <mxGeometry x="110" y="200" width="500" height="310" as="geometry" />
        </mxCell>
        <mxCell id="ajeqX5y_s42NzRfN0IP8-1" value="" style="rounded=0;whiteSpace=wrap;html=1;fillColor=none;strokeColor=#0f9fce;strokeWidth=2;" vertex="1" parent="1">
          <mxGeometry x="130" y="220" width="160" height="120" as="geometry" />
        </mxCell>
        <mxCell id="ajeqX5y_s42NzRfN0IP8-2" value="&lt;b&gt;Node 1&lt;/b&gt;" style="rounded=0;whiteSpace=wrap;html=1;fillColor=none;strokeColor=none;fontColor=#0F9FCE;" vertex="1" parent="1">
          <mxGeometry x="130" y="232" width="60" height="10" as="geometry" />
        </mxCell>
        <mxCell id="ajeqX5y_s42NzRfN0IP8-6" value="&lt;font color=&quot;#ffffff&quot;&gt;Node Exporter&lt;/font&gt;" style="rounded=1;whiteSpace=wrap;html=1;strokeColor=none;fillColor=#01a3e1;" vertex="1" parent="1">
          <mxGeometry x="150" y="260" width="120" height="60" as="geometry" />
        </mxCell>
        <mxCell id="ajeqX5y_s42NzRfN0IP8-7" value="" style="rounded=0;whiteSpace=wrap;html=1;fillColor=none;strokeColor=#0f9fce;strokeWidth=2;" vertex="1" parent="1">
          <mxGeometry x="130" y="370" width="160" height="120" as="geometry" />
        </mxCell>
        <mxCell id="ajeqX5y_s42NzRfN0IP8-8" value="&lt;b&gt;Node 2&lt;/b&gt;" style="rounded=0;whiteSpace=wrap;html=1;fillColor=none;strokeColor=none;fontColor=#0F9FCE;" vertex="1" parent="1">
          <mxGeometry x="130" y="382" width="60" height="10" as="geometry" />
        </mxCell>
        <mxCell id="ajeqX5y_s42NzRfN0IP8-9" value="&lt;font color=&quot;#ffffff&quot;&gt;Node Exporter&lt;/font&gt;" style="rounded=1;whiteSpace=wrap;html=1;strokeColor=none;fillColor=#01a3e1;" vertex="1" parent="1">
          <mxGeometry x="150" y="410" width="120" height="60" as="geometry" />
        </mxCell>
        <mxCell id="ajeqX5y_s42NzRfN0IP8-11" style="edgeStyle=orthogonalEdgeStyle;rounded=0;orthogonalLoop=1;jettySize=auto;html=1;entryX=1;entryY=0.5;entryDx=0;entryDy=0;" edge="1" parent="1" source="ajeqX5y_s42NzRfN0IP8-10" target="ajeqX5y_s42NzRfN0IP8-1">
          <mxGeometry relative="1" as="geometry">
            <Array as="points">
              <mxPoint x="390" y="352" />
              <mxPoint x="390" y="280" />
            </Array>
          </mxGeometry>
        </mxCell>
        <mxCell id="ajeqX5y_s42NzRfN0IP8-10" value="&lt;font color=&quot;#ffffff&quot;&gt;Prometheus Server&lt;/font&gt;" style="rounded=1;whiteSpace=wrap;html=1;strokeColor=none;fillColor=#02568c;" vertex="1" parent="1">
          <mxGeometry x="450" y="320" width="145" height="60" as="geometry" />
        </mxCell>
        <mxCell id="ajeqX5y_s42NzRfN0IP8-12" value="" style="endArrow=classic;html=1;rounded=0;entryX=1;entryY=0.5;entryDx=0;entryDy=0;" edge="1" parent="1" target="ajeqX5y_s42NzRfN0IP8-7">
          <mxGeometry width="50" height="50" relative="1" as="geometry">
            <mxPoint x="390" y="350" as="sourcePoint" />
            <mxPoint x="380" y="250" as="targetPoint" />
            <Array as="points">
              <mxPoint x="390" y="430" />
            </Array>
          </mxGeometry>
        </mxCell>
        <mxCell id="ajeqX5y_s42NzRfN0IP8-13" value="/metrics" style="text;whiteSpace=wrap;" vertex="1" parent="1">
          <mxGeometry x="310" y="242" width="80" height="40" as="geometry" />
        </mxCell>
        <mxCell id="ajeqX5y_s42NzRfN0IP8-14" value="/metrics" style="text;whiteSpace=wrap;" vertex="1" parent="1">
          <mxGeometry x="310" y="440" width="80" height="40" as="geometry" />
        </mxCell>
        <mxCell id="ajeqX5y_s42NzRfN0IP8-16" value="pull" style="text;whiteSpace=wrap;" vertex="1" parent="1">
          <mxGeometry x="410" y="320" width="40" height="40" as="geometry" />
        </mxCell>
      </root>
    </mxGraphModel>
  </diagram>
</mxfile>
